HIERARCHY
ROOT Hips
{
	OFFSET -0.179506 -22.333345 2.821913
	CHANNELS 6 Xposition Yposition Zposition Zrotation Yrotation Xrotation 
	JOINT LeftUpLeg
	{
		OFFSET 6.951974 -9.140623 -0.681533
		CHANNELS 3 Zrotation Yrotation Xrotation
		JOINT LeftLeg
		{
			OFFSET 3.427654 -37.519855 -0.449580
			CHANNELS 3 Zrotation Yrotation Xrotation
			JOINT LeftFoot
			{
				OFFSET -1.359570 -39.796059 -4.369333
				CHANNELS 3 Zrotation Yrotation Xrotation
				JOINT LeftToe
				{
					OFFSET 2.635814 -5.579078 11.928840
					CHANNELS 3 Zrotation Yrotation Xrotation
					End Site
					{
						OFFSET 0.000000 0.000000 0.000000
					}
				}
			}
		}
	}
	JOINT RightUpLeg
	{
		OFFSET -6.767048 -9.052170 -0.431982
		CHANNELS 3 Zrotation Yrotation Xrotation
		JOINT RightLeg
		{
			OFFSET -3.829005 -38.256897 -0.885003
			CHANNELS 3 Zrotation Yrotation Xrotation
			JOINT RightFoot
			{
				OFFSET 1.577377 -39.841461 -4.231180
				CHANNELS 3 Zrotation Yrotation Xrotation
				JOINT RightToe
				{
					OFFSET -2.537174 -4.814398 12.334795
					CHANNELS 3 Zrotation Yrotation Xrotation
					End Site
					{
						OFFSET 0.000000 0.000000 0.000000
					}
				}
			}
		}
	}
	JOINT Spine
	{
		OFFSET -0.253288 10.896323 -2.669631
		CHANNELS 3 Zrotation Yrotation Xrotation
		JOINT Spine1
		{
			OFFSET 0.548704 13.518043 0.109247
			CHANNELS 3 Zrotation Yrotation Xrotation
			JOINT Spine2
			{
				OFFSET 0.145701 5.292222 2.542457
				CHANNELS 3 Zrotation Yrotation Xrotation
				JOINT Neck
				{
					OFFSET -0.277840 21.387037 -4.285703
					CHANNELS 3 Zrotation Yrotation Xrotation
					JOINT Head
					{
						OFFSET 0.515184 6.496960 5.134897
						CHANNELS 3 Zrotation Yrotation Xrotation
						End Site
						{
							OFFSET 0.000000 0.000000 0.000000
						}
					}
				}
				JOINT LeftShoulder
				{
					OFFSET 7.884473 12.174932 -3.408961
					CHANNELS 3 Zrotation Yrotation Xrotation
					JOINT LeftArm
					{
						OFFSET 9.097692 3.046888 -0.886815
						CHANNELS 3 Zrotation Yrotation Xrotation
						JOINT LeftForeArm
						{
							OFFSET 25.961220 -1.277207 -2.745643
							CHANNELS 3 Zrotation Yrotation Xrotation
							JOINT LeftHand
							{
								OFFSET 24.923361 0.898606 -0.117091
								CHANNELS 3 Zrotation Yrotation Xrotation
								End Site
								{
									OFFSET 0.000000 0.000000 0.000000
								}
							}
						}
					}
				}
				JOINT RightShoulder
				{
					OFFSET -8.175920 11.883285 -3.861528
					CHANNELS 3 Zrotation Yrotation Xrotation
					JOINT RightArm
					{
						OFFSET -9.601238 3.255117 -0.914307
						CHANNELS 3 Zrotation Yrotation Xrotation
						JOINT RightForeArm
						{
							OFFSET -25.374195 -1.332924 -2.140099
							CHANNELS 3 Zrotation Yrotation Xrotation
							JOINT RightHand
							{
								OFFSET -25.529810 0.777228 -0.555919
								CHANNELS 3 Zrotation Yrotation Xrotation
								End Site
								{
									OFFSET 0.000000 0.000000 0.000000
								}
							}
						}
					}
				}
			}
		}
	}
}
MOTION
Frames: 13
Frame Time: 0.033333
-21.630423 4.556513 81.904282 130.541106 -11.988541 96.662520 19.358833 3.008548 3.074337 -2.543960 -12.811458 27.268750 -10.677903 9.674200 0.459603 nan nan nan -14.331160 -12.390479 -56.283515 3.069898 -24.581345 52.797583 -2.225727 -8.230344 -22.779710 nan nan nan -4.344833 -5.273507 26.004636 1.991588 1.496423 8.917012 1.731486 -5.000695 -4.745065 -0.803575 -8.179006 -7.411043 6.739154 -17.935580 -19.629204 -19.861746 3.086037 1.828952 -54.793323 -1.657300 13.746139 37.754650 -60.196425 -24.953964 -2.022035 -29.605610 -1.256206 25.704647 1.937224 2.877179 43.536115 -13.222146 8.644589 -0.496765 34.702999 13.100332 14.855176 21.753072 1.872429 
-19.017420 5.284808 82.351768 128.956138 -12.976725 96.456335 17.459421 2.008617 5.817762 -1.525456 -13.567751 25.911148 -9.486396 9.957115 3.320487 nan nan nan -14.125697 -12.364508 -55.549784 2.466909 -23.999219 53.722297 -2.589658 -8.521275 -22.356432 nan nan nan -4.868932 -4.959280 25.381610 2.109318 1.463888 9.500847 1.849147 -4.764040 -5.302686 -2.016968 -8.646776 -5.952283 6.816444 -16.912603 -20.065515 -19.705129 3.347445 2.240408 -55.218515 -0.699564 13.729952 32.742794 -58.551576 -20.050734 -2.214983 -29.164124 -1.802341 26.095232 1.877263 3.074045 43.101513 -12.251310 8.261187 -1.569453 34.830610 10.947167 14.441969 21.940676 2.767394 
-16.558544 5.924040 82.715668 127.798050 -13.862282 96.567453 15.482457 0.769840 7.064931 -1.220472 -14.554424 26.357644 -8.259101 9.855868 4.349238 nan nan nan -14.022809 -12.359170 -54.988042 1.777681 -23.770244 54.915211 -3.066311 -8.945207 -21.507224 nan nan nan -5.102363 -4.862986 24.668690 2.345296 1.297106 9.653137 1.882077 -4.705560 -5.494448 -3.004945 -9.090581 -5.268438 6.545408 -16.106694 -19.980613 -19.507360 3.612210 2.386434 -55.858275 0.298508 13.920002 28.687394 -56.637700 -16.232506 -2.807776 -28.762754 -2.376442 26.522236 1.933440 2.607099 42.257410 -11.467923 8.468176 -2.544256 35.147240 8.934827 14.071632 22.193337 3.005706 
-14.140131 6.573753 82.982651 126.452197 -14.692175 96.919815 13.393642 -0.345907 7.475065 -1.563238 -15.106671 28.367773 -7.163533 10.097187 3.728006 nan nan nan -13.815831 -12.175229 -54.492113 1.104428 -23.483601 56.154349 -4.218803 -9.026823 -20.806655 nan nan nan -5.261930 -4.585366 23.563303 2.651714 1.228631 10.215014 1.893206 -4.722390 -5.863453 -3.819072 -9.573558 -4.792784 6.025380 -15.401149 -19.803236 -19.415624 3.846975 2.547926 -56.485238 1.194143 14.324331 25.153435 -54.611538 -12.535964 -3.683758 -27.666363 -1.883262 26.893554 2.031072 2.042525 41.168771 -10.710418 9.026136 -3.402323 35.599723 7.157515 13.552979 22.495196 2.489956 
-11.746917 7.212907 83.141762 124.880582 -15.351597 97.492544 11.416161 -1.488177 7.157796 -2.424636 -14.866968 31.675520 -6.147970 10.764603 2.277874 nan nan nan -13.339596 -11.761980 -53.938032 0.907196 -22.973449 57.059139 -5.243832 -8.674820 -20.987362 nan nan nan -5.270735 -4.189251 22.258528 2.897547 1.198616 10.825389 1.861626 -4.600109 -6.297075 -4.774574 -9.903206 -4.508397 5.557794 -14.494473 -19.409099 -19.431097 3.999259 2.958104 -56.997389 1.939493 14.619983 21.729570 -52.525162 -8.355627 -4.618708 -26.167974 -0.446921 27.215610 2.092075 1.816986 40.011692 -9.868514 9.316574 -3.965944 36.268571 6.081431 12.703375 22.912047 2.507010 
-9.357900 7.814854 83.207893 123.126053 -15.779342 98.196327 9.699090 -2.758922 6.365971 -3.696188 -13.971117 35.765142 -5.416336 11.538050 0.576803 nan nan nan -12.614080 -10.992046 -53.181079 1.050253 -22.319905 57.421969 -6.089527 -8.233647 -21.848505 nan nan nan -5.077252 -3.729381 20.911559 3.038943 1.203916 11.176789 1.788076 -4.420262 -6.184884 -5.393827 -10.487056 -4.576673 4.967848 -13.853489 -19.012021 -19.677075 4.106231 2.970211 -57.267716 2.837272 14.963896 18.836157 -50.431092 -4.842762 -5.595158 -25.341659 0.030865 27.518987 2.382792 1.253878 38.841040 -9.161425 9.632845 -4.441134 37.242037 5.042837 11.766381 23.435936 2.321579 
-6.968918 8.372373 83.208252 121.285944 -16.068844 98.862005 8.231923 -3.894515 5.280354 -5.127246 -12.634740 40.227682 -5.002021 12.121073 -1.040478 nan nan nan -11.851562 -9.868978 -52.139885 1.104806 -21.682292 57.336811 -7.150658 -8.514241 -22.902097 nan nan nan -4.829320 -3.171148 19.813055 3.072112 1.301873 11.334132 1.745392 -4.272281 -5.978638 -5.767760 -10.761433 -5.020933 4.214341 -13.028961 -18.230747 -19.949971 4.084228 2.994451 -57.534497 3.868027 15.212459 16.667407 -48.243069 -1.644674 -6.696121 -25.226987 -0.543103 27.748731 2.854866 0.797401 37.867607 -8.404356 9.824872 -4.953886 38.323107 3.861168 10.706288 23.978550 1.686913 
-4.579878 8.887261 83.163719 119.332907 -16.179633 99.456860 7.101605 -4.636113 3.893732 -6.422927 -10.669079 44.806878 -4.807300 12.453394 -2.107938 nan nan nan -11.051452 -8.416637 -50.877313 1.280432 -21.010137 56.873126 -8.265173 -9.388338 -23.950296 nan nan nan -4.523670 -2.537368 19.074841 3.023519 1.525343 11.450485 1.760670 -4.100408 -5.862406 -5.843911 -10.920951 -5.724546 3.342670 -12.310957 -17.408314 -20.326231 4.079584 2.997139 -57.738473 4.905918 15.393117 14.838682 -46.141472 1.247728 -8.263700 -24.694894 -0.279130 27.941281 3.343272 0.525458 37.047094 -7.451681 9.943857 -5.623032 39.463089 2.882041 9.583980 24.421549 1.309858 
-2.218290 9.338114 83.100777 117.227594 -16.182794 99.985077 6.231209 -4.994470 2.228268 -7.584199 -8.304230 49.420223 -4.589477 12.697302 -2.655786 nan nan nan -10.100905 -6.830629 -49.557687 1.679224 -19.986014 56.213942 -9.197530 -10.492765 -24.928643 nan nan nan -4.264059 -1.837816 18.657663 2.895462 1.766744 11.653314 1.823122 -3.786012 -5.879012 -5.802684 -10.987236 -6.479275 2.670589 -11.703565 -16.822663 -20.781640 3.929653 3.028997 -57.788722 5.979453 15.477005 13.017835 -44.300110 3.443784 -9.836582 -23.632194 0.672929 28.099458 3.997642 0.388537 36.359140 -6.446762 9.922932 -6.465271 40.808412 1.858272 8.558177 24.710304 1.067498 
0.112049 9.750380 83.043953 115.095598 -16.135465 100.431183 5.517803 -5.099426 0.373469 -8.618761 -5.922136 54.027296 -4.284028 12.738691 -3.199826 nan nan nan -9.121814 -5.333469 -48.196745 2.045091 -18.760746 55.676002 -9.649469 -11.623842 -26.111773 nan nan nan -3.972755 -1.108508 18.584417 2.674528 2.018189 11.541941 1.836361 -3.395195 -5.749971 -5.856343 -11.049166 -7.204631 2.290433 -11.108264 -16.375728 -21.128883 3.549744 3.154152 -57.904339 7.114973 15.595957 11.426249 -42.547217 5.566936 -11.016064 -22.344402 1.330938 28.150258 4.804531 0.264358 35.866223 -5.550637 9.702407 -7.308477 42.448622 0.731695 7.806695 24.854133 0.716390 
2.443212 10.147890 83.040260 113.074069 -16.030951 100.800991 4.875636 -5.077344 -1.621624 -9.452422 -3.824234 58.376979 -4.047848 12.507461 -3.851958 nan nan nan -8.292328 -3.916941 -46.639708 2.165859 -17.764640 55.285602 -9.668672 -12.279412 -27.452412 nan nan nan -3.583181 -0.365764 18.636046 2.457419 2.233032 11.427590 1.854936 -3.101741 -5.646573 -5.941510 -11.158005 -7.599505 1.897772 -10.733436 -16.538010 -21.407903 3.088548 3.213751 -58.354804 8.240669 15.891397 10.431168 -40.365568 7.283380 -12.153712 -21.510563 1.445500 27.987700 5.818450 0.192556 35.631216 -4.711176 9.766593 -8.578355 44.144770 -0.650638 6.749021 25.447628 -0.289187 
4.788237 10.515162 83.095200 111.148126 -15.814281 101.158817 4.421976 -4.962342 -3.874003 -10.257471 -2.020527 62.493140 -3.854110 12.181522 -4.440742 nan nan nan -7.465649 -2.562251 -44.974068 2.161095 -16.934095 54.938935 -9.519822 -12.442905 -28.572373 nan nan nan -3.047190 0.335300 18.802148 2.204233 2.399803 11.314897 1.815479 -2.890783 -5.602686 -5.818843 -10.967224 -7.840051 1.452534 -10.508422 -17.228672 -21.681372 2.841470 3.027926 -58.858423 9.393405 16.262162 9.714371 -38.060223 8.711663 -13.659505 -21.033361 1.819975 27.753477 6.865518 -0.011917 35.548656 -3.795732 10.124087 -10.185852 45.846290 -1.956878 5.698958 26.291048 -1.349701 
7.129990 10.825109 83.193810 109.253426 -15.414123 101.394417 4.290944 -4.678770 -6.253748 -10.883973 -0.294013 66.431089 -3.673052 11.697584 -5.093758 nan nan nan -6.411878 -1.335281 -43.112653 2.352566 -15.911342 54.497123 -9.075481 -12.512226 -29.540588 nan nan nan -2.311074 0.950256 19.344812 1.838046 2.561395 10.889672 1.598841 -2.583865 -5.526147 -5.474206 -10.440512 -8.424918 0.937411 -10.298432 -17.284806 -21.633242 2.913699 2.850462 -59.381597 10.320605 16.614716 8.755273 -35.932380 10.643488 -15.361204 -20.389218 2.515442 27.452266 7.564929 -0.114942 35.680754 -2.527678 10.065584 -11.475850 47.775241 -2.620680 4.914996 26.790602 -1.756228 
